<svg xmlns="http://www.w3.org/2000/svg" viewBox="0 0 200 150"><defs><linearGradient id="G" x1="0" y1="0" x2="0" y2="1"><stop offset="0" stop-color="#A78BFA"/><stop offset="1" stop-color="#7C3AED"/></linearGradient></defs><circle cx="100" cy="68" r="52" fill="#F1ECFD"/><ellipse cx="100" cy="128" rx="46" ry="7" fill="#1e2430" opacity=".08"/><rect x="52" y="20" width="96" height="32" rx="8" fill="#6D28D9"/><rect x="58" y="26" width="84" height="20" rx="5" fill="#7C3AED"/><g transform="translate(74 48) scale(0.38) translate(-100 -64)"><rect x="58" y="30" width="84" height="66" rx="15" fill="#2563EB"/><g fill="#fff"><rect x="96.6" y="44.0" width="6.9" height="40.0" rx="3.4" transform="rotate(0 100 64)"/><rect x="96.6" y="44.0" width="6.9" height="40.0" rx="3.4" transform="rotate(45 100 64)"/><rect x="96.6" y="44.0" width="6.9" height="40.0" rx="3.4" transform="rotate(90 100 64)"/><rect x="96.6" y="44.0" width="6.9" height="40.0" rx="3.4" transform="rotate(135 100 64)"/><circle cx="100" cy="64" r="13.2"/></g><circle cx="100" cy="64" r="7.2" fill="#1D4ED8"/></g><g fill="#fff"><rect x="104.1" y="39.0" width="3.8" height="22.0" rx="1.9" transform="rotate(0 106 50)"/><rect x="104.1" y="39.0" width="3.8" height="22.0" rx="1.9" transform="rotate(45 106 50)"/><rect x="104.1" y="39.0" width="3.8" height="22.0" rx="1.9" transform="rotate(90 106 50)"/><rect x="104.1" y="39.0" width="3.8" height="22.0" rx="1.9" transform="rotate(135 106 50)"/><circle cx="106" cy="50" r="7.3"/></g><circle cx="106" cy="50" r="4.0" fill="#6D28D9"/><polygon points="132,42 142,46.5 132,51 122,46.5" fill="#99F6E4"/><polygon points="122,46.5 132,51 132,61 122,56.5" fill="#2DD4BF"/><polygon points="142,46.5 132,51 132,61 142,56.5" fill="#0D9488"/><rect x="46" y="60" width="108" height="52" rx="11" fill="url(#G)"/><path d="M46 74h108" stroke="#6D28D9" stroke-width="2.6" opacity=".6"/><rect x="92" y="67" width="16" height="12" rx="3.5" fill="#fff"/></svg>
