<svg xmlns="http://www.w3.org/2000/svg" viewBox="0 0 200 150"><defs><linearGradient id="G" x1="0" y1="0" x2="0" y2="1"><stop offset="0" stop-color="#E879F9"/><stop offset="1" stop-color="#C026D3"/></linearGradient><linearGradient id="GG" x1="0" y1="0" x2="0" y2="1"><stop offset="0" stop-color="#FDE68A"/><stop offset="1" stop-color="#F59E0B"/></linearGradient></defs><circle cx="100" cy="68" r="52" fill="#FDEDF2"/><ellipse cx="100" cy="128" rx="51" ry="7" fill="#1e2430" opacity=".08"/><g transform="translate(100 66) scale(1.120) translate(-100 -64)"><rect x="66" y="90" width="13" height="9" rx="4" fill="#86198F"/><rect x="120" y="90" width="13" height="9" rx="4" fill="#86198F"/><rect x="58" y="30" width="84" height="66" rx="15" fill="url(#G)"/><rect x="64" y="36" width="72" height="24" rx="9" fill="#fff" opacity=".16"/><g fill="url(#GG)"><rect x="96.6" y="44.0" width="6.9" height="40.0" rx="3.4" transform="rotate(0 100 64)"/><rect x="96.6" y="44.0" width="6.9" height="40.0" rx="3.4" transform="rotate(45 100 64)"/><rect x="96.6" y="44.0" width="6.9" height="40.0" rx="3.4" transform="rotate(90 100 64)"/><rect x="96.6" y="44.0" width="6.9" height="40.0" rx="3.4" transform="rotate(135 100 64)"/><circle cx="100" cy="64" r="13.2"/></g><path d="M100 56.4 L107.6 64 L100 71.6 L92.4 64 Z" fill="#E879F9"/><circle cx="128.0" cy="42" r="3.4" fill="#FDE68A"/><circle cx="117.5" cy="42" r="3.4" fill="rgba(255,255,255,.7)"/></g><path fill="#FB7185" d="M154 26c.9 5 2 6.1 7 7-5 .9-6.1 2-7 7-.9-5-2-6.1-7-7 5-.9 6.1-2 7-7z"/><path fill="#FDA4AF" d="M46 32c.6 3.4 1.4 4.2 4.8 4.8-3.4.6-4.2 1.4-4.8 4.8-.6-3.4-1.4-4.2-4.8-4.8 3.4-.6 4.2-1.4 4.8-4.8z"/></svg>
