<svg xmlns="http://www.w3.org/2000/svg" viewBox="0 0 200 150"><defs><linearGradient id="G" x1="0" y1="0" x2="0" y2="1"><stop offset="0" stop-color="#5EEAD4"/><stop offset="1" stop-color="#0D9488"/></linearGradient></defs><circle cx="100" cy="68" r="52" fill="#E4FAF5"/><ellipse cx="100" cy="128" rx="28" ry="7" fill="#1e2430" opacity=".08"/><g transform="translate(100 68) scale(0.528) translate(-100 -64)"><rect x="18" y="56" width="30" height="26" rx="6" fill="#0F766E"/><rect x="152" y="56" width="30" height="26" rx="6" fill="#0F766E"/><rect x="40" y="62" width="120" height="14" rx="6" fill="#0D9488"/><rect x="64" y="44" width="72" height="52" rx="14" fill="url(#G)"/><rect x="70" y="50" width="60" height="16" rx="7" fill="#fff" opacity=".16"/><line x1="100" y1="44" x2="100" y2="32" stroke="#0F766E" stroke-width="5" stroke-linecap="round"/><circle cx="100" cy="24" r="16" fill="none" stroke="#0F766E" stroke-width="5.5"/><line x1="84" y1="24" x2="116" y2="24" stroke="#0F766E" stroke-width="4" stroke-linecap="round"/><line x1="100" y1="8" x2="100" y2="40" stroke="#0F766E" stroke-width="4" stroke-linecap="round"/><circle cx="100" cy="74" r="8" fill="#fff" opacity=".85"/></g><rect x="56" y="22" width="88" height="92" rx="18" fill="none" stroke="#99F6E4" stroke-width="5" stroke-dasharray="13 11" stroke-linecap="round"/></svg>
